# WaveFront *.obj file (generated by Autodesk ATF)

mtllib da85c903-8d08-405e-bfad-4101b9288211.mtl

g Body1

v 27.500000 1100.000000 -100.000000
v 27.500000 1150.000000 -50.000000
v 72.500000 1150.000000 -50.000000
v 72.500000 1100.000000 -100.000000
v 72.500000 1100.000000 0.000000
v 72.500000 1070.000000 0.000000
v 72.500000 1070.000000 -15.000000
v 72.500000 1000.000000 -15.000000
v 72.500000 1000.000000 -85.000000
v 72.500000 1070.000000 -85.000000
v 72.500000 1070.000000 -100.000000
v 27.500000 1100.000000 0.000000
v 27.500000 1070.000000 -100.000000
v 27.500000 1070.000000 -85.000000
v 27.500000 1000.000000 -85.000000
v 27.500000 1000.000000 -15.000000
v 27.500000 1070.000000 -15.000000
v 27.500000 1070.000000 0.000000
v 100.000000 0.000000 0.000000
v 100.000000 0.000000 -100.000000
v 100.000000 1000.000000 -100.000000
v 100.000000 1000.000000 0.000000
v 0.000000 0.000000 0.000000
v 0.000000 1000.000000 0.000000
v 0.000000 0.000000 -100.000000
v 0.000000 1000.000000 -100.000000
vt 3.375000 3.535534 0.000000
vt -1.125000 3.535534 0.000000
vt 3.375000 -3.535534 0.000000
vt -1.125000 -3.535534 0.000000
vt 8.500000 7.000000 0.000000
vt 8.500000 10.000000 0.000000
vt 7.000000 7.000000 0.000000
vt 3.500000 15.000000 0.000000
vt -0.000000 7.000000 0.000000
vt -1.500000 10.000000 0.000000
vt -1.500000 7.000000 0.000000
vt -0.000000 0.000000 0.000000
vt 7.000000 0.000000 0.000000
vt 3.375000 3.535534 0.000000
vt -1.125000 3.535534 0.000000
vt 3.375000 -3.535534 0.000000
vt -1.125000 -3.535534 0.000000
vt -1.500000 10.000000 0.000000
vt 0.000000 7.000000 0.000000
vt 3.500000 15.000000 0.000000
vt 7.000000 7.000000 0.000000
vt 8.500000 10.000000 0.000000
vt 8.500000 7.000000 0.000000
vt -1.500000 7.000000 0.000000
vt 0.000000 0.000000 0.000000
vt 7.000000 0.000000 0.000000
vt -2.250000 3.500000 0.000000
vt 2.250000 3.500000 0.000000
vt -2.250000 5.000000 0.000000
vt 2.250000 5.000000 0.000000
vt 2.250000 -3.500000 0.000000
vt -2.250000 -3.500000 0.000000
vt 2.250000 -5.000000 0.000000
vt -2.250000 -5.000000 0.000000
vt 4.500000 3.000000 0.000000
vt 0.000000 3.000000 0.000000
vt 4.500000 0.000000 0.000000
vt 0.000000 0.000000 0.000000
vt 4.500000 3.000000 0.000000
vt -0.000000 3.000000 0.000000
vt 4.500000 0.000000 0.000000
vt -0.000000 0.000000 0.000000
vt 0.000000 0.000000 0.000000
vt 4.500000 0.000000 0.000000
vt 0.000000 7.000000 0.000000
vt 4.500000 7.000000 0.000000
vt -0.000000 0.000000 0.000000
vt 4.500000 0.000000 0.000000
vt -0.000000 7.000000 0.000000
vt 4.500000 7.000000 0.000000
vt 0.000000 0.000000 0.000000
vt 10.000000 0.000000 0.000000
vt 0.000000 100.000000 0.000000
vt 10.000000 100.000000 0.000000
vt 0.000000 0.000000 0.000000
vt 10.000000 0.000000 0.000000
vt 0.000000 100.000000 0.000000
vt 10.000000 100.000000 0.000000
vt 0.000000 0.000000 0.000000
vt 10.000000 0.000000 0.000000
vt 0.000000 100.000000 0.000000
vt 10.000000 100.000000 0.000000
vt 0.000000 0.000000 0.000000
vt 10.000000 0.000000 0.000000
vt 0.000000 100.000000 0.000000
vt 10.000000 100.000000 0.000000
vt 3.500000 2.250000 0.000000
vt -5.000000 5.000000 0.000000
vt -3.500000 2.250000 0.000000
vt -5.000000 -5.000000 0.000000
vt -3.500000 -2.250000 0.000000
vt 5.000000 -5.000000 0.000000
vt 3.500000 -2.250000 0.000000
vt 5.000000 5.000000 0.000000
vt 5.000000 5.000000 0.000000
vt -5.000000 5.000000 0.000000
vt 5.000000 -5.000000 0.000000
vt -5.000000 -5.000000 0.000000
vn 0.000000 0.070711 -0.070711
vn 0.000000 0.070711 -0.070711
vn 0.000000 0.070711 -0.070711
vn 0.000000 0.070711 -0.070711
vn 0.100000 0.000000 0.000000
vn 0.100000 0.000000 0.000000
vn 0.100000 0.000000 0.000000
vn 0.100000 0.000000 0.000000
vn 0.100000 0.000000 0.000000
vn 0.100000 0.000000 0.000000
vn 0.100000 0.000000 0.000000
vn 0.100000 0.000000 0.000000
vn 0.100000 0.000000 0.000000
vn 0.000000 0.070711 0.070711
vn 0.000000 0.070711 0.070711
vn 0.000000 0.070711 0.070711
vn 0.000000 0.070711 0.070711
vn -0.100000 0.000000 0.000000
vn -0.100000 0.000000 0.000000
vn -0.100000 0.000000 0.000000
vn -0.100000 0.000000 0.000000
vn -0.100000 0.000000 0.000000
vn -0.100000 0.000000 0.000000
vn -0.100000 0.000000 0.000000
vn -0.100000 0.000000 0.000000
vn -0.100000 0.000000 0.000000
vn 0.000000 -0.100000 0.000000
vn 0.000000 -0.100000 0.000000
vn 0.000000 -0.100000 0.000000
vn 0.000000 -0.100000 0.000000
vn 0.000000 -0.100000 0.000000
vn 0.000000 -0.100000 0.000000
vn 0.000000 -0.100000 0.000000
vn 0.000000 -0.100000 0.000000
vn 0.000000 -0.000000 0.100000
vn 0.000000 -0.000000 0.100000
vn 0.000000 -0.000000 0.100000
vn 0.000000 -0.000000 0.100000
vn 0.000000 0.000000 -0.100000
vn 0.000000 0.000000 -0.100000
vn 0.000000 0.000000 -0.100000
vn 0.000000 0.000000 -0.100000
vn 0.000000 -0.000000 0.100000
vn 0.000000 -0.000000 0.100000
vn 0.000000 -0.000000 0.100000
vn 0.000000 -0.000000 0.100000
vn 0.000000 0.000000 -0.100000
vn 0.000000 0.000000 -0.100000
vn 0.000000 0.000000 -0.100000
vn 0.000000 0.000000 -0.100000
vn 0.100000 -0.000000 0.000000
vn 0.100000 -0.000000 0.000000
vn 0.100000 -0.000000 0.000000
vn 0.100000 -0.000000 0.000000
vn 0.000000 0.000000 0.100000
vn 0.000000 0.000000 0.100000
vn 0.000000 0.000000 0.100000
vn 0.000000 0.000000 0.100000
vn -0.100000 0.000000 0.000000
vn -0.100000 0.000000 0.000000
vn -0.100000 0.000000 0.000000
vn -0.100000 0.000000 0.000000
vn 0.000000 0.000000 -0.100000
vn 0.000000 0.000000 -0.100000
vn 0.000000 0.000000 -0.100000
vn 0.000000 0.000000 -0.100000
vn 0.000000 0.100000 0.000000
vn 0.000000 0.100000 0.000000
vn 0.000000 0.100000 0.000000
vn 0.000000 0.100000 0.000000
vn 0.000000 0.100000 0.000000
vn 0.000000 0.100000 0.000000
vn 0.000000 0.100000 0.000000
vn 0.000000 0.100000 0.000000
vn 0.000000 -0.100000 0.000000
vn 0.000000 -0.100000 0.000000
vn 0.000000 -0.100000 0.000000
vn 0.000000 -0.100000 0.000000
usemtl Paint_-_Metallic_(Green)
f 2/1/1 3/2/2 1/3/3
f 1/3/3 3/2/2 4/4/4
f 11/5/5 4/6/6 10/7/7
f 10/7/7 4/6/6 3/8/8
f 10/7/7 3/8/8 7/9/9
f 7/9/9 3/8/8 5/10/10
f 7/9/9 5/10/10 6/11/11
f 8/12/12 9/13/13 7/9/9
f 7/9/9 9/13/13 10/7/7
f 3/14/14 2/15/15 5/16/16
f 5/16/16 2/15/15 12/17/17
f 1/18/18 14/19/19 2/20/20
f 2/20/20 14/19/19 17/21/21
f 2/20/20 17/21/21 12/22/22
f 12/22/22 17/21/21 18/23/23
f 1/18/18 13/24/24 14/19/19
f 15/25/25 16/26/26 14/19/19
f 14/19/19 16/26/26 17/21/21
f 17/27/27 7/28/28 18/29/29
f 18/29/29 7/28/28 6/30/30
f 10/31/31 14/32/32 11/33/33
f 11/33/33 14/32/32 13/34/34
f 5/35/35 12/36/36 6/37/37
f 6/37/37 12/36/36 18/38/38
f 1/39/39 4/40/40 13/41/41
f 13/41/41 4/40/40 11/42/42
f 16/43/43 8/44/44 17/45/45
f 17/45/45 8/44/44 7/46/46
f 9/47/47 15/48/48 10/49/49
f 10/49/49 15/48/48 14/50/50
f 19/51/51 20/52/52 22/53/53
f 22/53/53 20/52/52 21/54/54
f 23/55/55 19/56/56 24/57/57
f 24/57/57 19/56/56 22/58/58
f 25/59/59 23/60/60 26/61/61
f 26/61/61 23/60/60 24/62/62
f 20/63/63 25/64/64 21/65/65
f 21/65/65 25/64/64 26/66/66
f 8/67/67 21/68/68 9/69/69
f 9/69/69 21/68/68 26/70/70
f 9/69/69 26/70/70 15/71/71
f 15/71/71 26/70/70 24/72/72
f 15/71/71 24/72/72 16/73/73
f 16/73/73 24/72/72 8/67/67
f 8/67/67 24/72/72 22/74/74
f 8/67/67 22/74/74 21/68/68
f 25/75/75 20/76/76 23/77/77
f 23/77/77 20/76/76 19/78/78
g Body1:1

v 1200.000000 72.500000 -100.000000
v 1250.000000 72.500000 -50.000000
v 1250.000000 27.500000 -50.000000
v 1200.000000 27.500000 -100.000000
v 1200.000000 27.500000 0.000000
v 1170.000000 27.500000 0.000000
v 1170.000000 27.500000 -15.000000
v 1100.000000 27.500000 -15.000000
v 1100.000000 27.500000 -85.000000
v 1170.000000 27.500000 -85.000000
v 1170.000000 27.500000 -100.000000
v 1200.000000 72.500000 0.000000
v 1170.000000 72.500000 -100.000000
v 1170.000000 72.500000 -85.000000
v 1100.000000 72.500000 -85.000000
v 1100.000000 72.500000 -15.000000
v 1170.000000 72.500000 -15.000000
v 1170.000000 72.500000 0.000000
v 100.000000 0.000000 0.000000
v 100.000000 0.000000 -100.000000
v 1100.000000 0.000000 -100.000000
v 1100.000000 0.000000 0.000000
v 100.000000 100.000000 0.000000
v 1100.000000 100.000000 0.000000
v 100.000000 100.000000 -100.000000
v 1100.000000 100.000000 -100.000000
vt 3.375000 3.535534 0.000000
vt -1.125000 3.535534 0.000000
vt 3.375000 -3.535534 0.000000
vt -1.125000 -3.535534 0.000000
vt 8.500000 7.000000 0.000000
vt 8.500000 10.000000 0.000000
vt 7.000000 7.000000 0.000000
vt 3.500000 15.000000 0.000000
vt -0.000000 7.000000 0.000000
vt -1.500000 10.000000 0.000000
vt -1.500000 7.000000 0.000000
vt -0.000000 0.000000 0.000000
vt 7.000000 0.000000 0.000000
vt 3.375000 3.535534 0.000000
vt -1.125000 3.535534 0.000000
vt 3.375000 -3.535534 0.000000
vt -1.125000 -3.535534 0.000000
vt -1.500000 10.000000 0.000000
vt 0.000000 7.000000 0.000000
vt 3.500000 15.000000 0.000000
vt 7.000000 7.000000 0.000000
vt 8.500000 10.000000 0.000000
vt 8.500000 7.000000 0.000000
vt -1.500000 7.000000 0.000000
vt 0.000000 0.000000 0.000000
vt 7.000000 0.000000 0.000000
vt -2.250000 3.500000 0.000000
vt 2.250000 3.500000 0.000000
vt -2.250000 5.000000 0.000000
vt 2.250000 5.000000 0.000000
vt 2.250000 -3.500000 0.000000
vt -2.250000 -3.500000 0.000000
vt 2.250000 -5.000000 0.000000
vt -2.250000 -5.000000 0.000000
vt 4.500000 3.000000 0.000000
vt 0.000000 3.000000 0.000000
vt 4.500000 0.000000 0.000000
vt 0.000000 0.000000 0.000000
vt 4.500000 3.000000 0.000000
vt -0.000000 3.000000 0.000000
vt 4.500000 0.000000 0.000000
vt -0.000000 0.000000 0.000000
vt 0.000000 0.000000 0.000000
vt 4.500000 0.000000 0.000000
vt 0.000000 7.000000 0.000000
vt 4.500000 7.000000 0.000000
vt -0.000000 0.000000 0.000000
vt 4.500000 0.000000 0.000000
vt -0.000000 7.000000 0.000000
vt 4.500000 7.000000 0.000000
vt 0.000000 0.000000 0.000000
vt 10.000000 0.000000 0.000000
vt 0.000000 100.000000 0.000000
vt 10.000000 100.000000 0.000000
vt 0.000000 0.000000 0.000000
vt 10.000000 0.000000 0.000000
vt 0.000000 100.000000 0.000000
vt 10.000000 100.000000 0.000000
vt 0.000000 0.000000 0.000000
vt 10.000000 0.000000 0.000000
vt 0.000000 100.000000 0.000000
vt 10.000000 100.000000 0.000000
vt 0.000000 0.000000 0.000000
vt 10.000000 0.000000 0.000000
vt 0.000000 100.000000 0.000000
vt 10.000000 100.000000 0.000000
vt 3.500000 2.250000 0.000000
vt -5.000000 5.000000 0.000000
vt -3.500000 2.250000 0.000000
vt -5.000000 -5.000000 0.000000
vt -3.500000 -2.250000 0.000000
vt 5.000000 -5.000000 0.000000
vt 3.500000 -2.250000 0.000000
vt 5.000000 5.000000 0.000000
vt 5.000000 5.000000 0.000000
vt -5.000000 5.000000 0.000000
vt 5.000000 -5.000000 0.000000
vt -5.000000 -5.000000 0.000000
vn 0.070711 0.000000 -0.070711
vn 0.070711 0.000000 -0.070711
vn 0.070711 0.000000 -0.070711
vn 0.070711 0.000000 -0.070711
vn 0.000000 -0.100000 -0.000000
vn 0.000000 -0.100000 -0.000000
vn 0.000000 -0.100000 -0.000000
vn 0.000000 -0.100000 -0.000000
vn 0.000000 -0.100000 -0.000000
vn 0.000000 -0.100000 -0.000000
vn 0.000000 -0.100000 -0.000000
vn 0.000000 -0.100000 -0.000000
vn 0.000000 -0.100000 -0.000000
vn 0.070711 -0.000000 0.070711
vn 0.070711 -0.000000 0.070711
vn 0.070711 -0.000000 0.070711
vn 0.070711 -0.000000 0.070711
vn 0.000000 0.100000 0.000000
vn 0.000000 0.100000 0.000000
vn 0.000000 0.100000 0.000000
vn 0.000000 0.100000 0.000000
vn 0.000000 0.100000 0.000000
vn 0.000000 0.100000 0.000000
vn 0.000000 0.100000 0.000000
vn 0.000000 0.100000 0.000000
vn 0.000000 0.100000 0.000000
vn -0.100000 0.000000 0.000000
vn -0.100000 0.000000 0.000000
vn -0.100000 0.000000 0.000000
vn -0.100000 0.000000 0.000000
vn -0.100000 0.000000 0.000000
vn -0.100000 0.000000 0.000000
vn -0.100000 0.000000 0.000000
vn -0.100000 0.000000 0.000000
vn 0.000000 -0.000000 0.100000
vn 0.000000 -0.000000 0.100000
vn 0.000000 -0.000000 0.100000
vn 0.000000 -0.000000 0.100000
vn 0.000000 0.000000 -0.100000
vn 0.000000 0.000000 -0.100000
vn 0.000000 0.000000 -0.100000
vn 0.000000 0.000000 -0.100000
vn 0.000000 -0.000000 0.100000
vn 0.000000 -0.000000 0.100000
vn 0.000000 -0.000000 0.100000
vn 0.000000 -0.000000 0.100000
vn 0.000000 0.000000 -0.100000
vn 0.000000 0.000000 -0.100000
vn 0.000000 0.000000 -0.100000
vn 0.000000 0.000000 -0.100000
vn 0.000000 -0.100000 -0.000000
vn 0.000000 -0.100000 -0.000000
vn 0.000000 -0.100000 -0.000000
vn 0.000000 -0.100000 -0.000000
vn 0.000000 -0.000000 0.100000
vn 0.000000 -0.000000 0.100000
vn 0.000000 -0.000000 0.100000
vn 0.000000 -0.000000 0.100000
vn 0.000000 0.100000 0.000000
vn 0.000000 0.100000 0.000000
vn 0.000000 0.100000 0.000000
vn 0.000000 0.100000 0.000000
vn 0.000000 0.000000 -0.100000
vn 0.000000 0.000000 -0.100000
vn 0.000000 0.000000 -0.100000
vn 0.000000 0.000000 -0.100000
vn 0.100000 0.000000 0.000000
vn 0.100000 0.000000 0.000000
vn 0.100000 0.000000 0.000000
vn 0.100000 0.000000 0.000000
vn 0.100000 0.000000 0.000000
vn 0.100000 0.000000 0.000000
vn 0.100000 0.000000 0.000000
vn 0.100000 0.000000 0.000000
vn -0.100000 0.000000 0.000000
vn -0.100000 0.000000 0.000000
vn -0.100000 0.000000 0.000000
vn -0.100000 0.000000 0.000000
usemtl Paint_-_Metallic_(Red)
f 28/79/79 29/80/80 27/81/81
f 27/81/81 29/80/80 30/82/82
f 37/83/83 30/84/84 36/85/85
f 36/85/85 30/84/84 29/86/86
f 36/85/85 29/86/86 33/87/87
f 33/87/87 29/86/86 31/88/88
f 33/87/87 31/88/88 32/89/89
f 34/90/90 35/91/91 33/87/87
f 33/87/87 35/91/91 36/85/85
f 29/92/92 28/93/93 31/94/94
f 31/94/94 28/93/93 38/95/95
f 27/96/96 40/97/97 28/98/98
f 28/98/98 40/97/97 43/99/99
f 28/98/98 43/99/99 38/100/100
f 38/100/100 43/99/99 44/101/101
f 27/96/96 39/102/102 40/97/97
f 41/103/103 42/104/104 40/97/97
f 40/97/97 42/104/104 43/99/99
f 43/105/105 33/106/106 44/107/107
f 44/107/107 33/106/106 32/108/108
f 36/109/109 40/110/110 37/111/111
f 37/111/111 40/110/110 39/112/112
f 31/113/113 38/114/114 32/115/115
f 32/115/115 38/114/114 44/116/116
f 27/117/117 30/118/118 39/119/119
f 39/119/119 30/118/118 37/120/120
f 42/121/121 34/122/122 43/123/123
f 43/123/123 34/122/122 33/124/124
f 35/125/125 41/126/126 36/127/127
f 36/127/127 41/126/126 40/128/128
f 45/129/129 46/130/130 48/131/131
f 48/131/131 46/130/130 47/132/132
f 49/133/133 45/134/134 50/135/135
f 50/135/135 45/134/134 48/136/136
f 51/137/137 49/138/138 52/139/139
f 52/139/139 49/138/138 50/140/140
f 46/141/141 51/142/142 47/143/143
f 47/143/143 51/142/142 52/144/144
f 34/145/145 47/146/146 35/147/147
f 35/147/147 47/146/146 52/148/148
f 35/147/147 52/148/148 41/149/149
f 41/149/149 52/148/148 50/150/150
f 41/149/149 50/150/150 42/151/151
f 42/151/151 50/150/150 34/145/145
f 34/145/145 50/150/150 48/152/152
f 34/145/145 48/152/152 47/146/146
f 51/153/153 46/154/154 49/155/155
f 49/155/155 46/154/154 45/156/156
g Body1:2

v 27.500000 100.000000 1100.000000
v 27.500000 50.000000 1150.000000
v 72.500000 50.000000 1150.000000
v 72.500000 100.000000 1100.000000
v 72.500000 0.000000 1100.000000
v 72.500000 0.000000 1070.000000
v 72.500000 15.000000 1070.000000
v 72.500000 15.000000 1000.000000
v 72.500000 85.000000 1000.000000
v 72.500000 85.000000 1070.000000
v 72.500000 100.000000 1070.000000
v 27.500000 0.000000 1100.000000
v 27.500000 100.000000 1070.000000
v 27.500000 85.000000 1070.000000
v 27.500000 85.000000 1000.000000
v 27.500000 15.000000 1000.000000
v 27.500000 15.000000 1070.000000
v 27.500000 0.000000 1070.000000
v 100.000000 0.000000 0.000000
v 100.000000 100.000000 0.000000
v 100.000000 100.000000 1000.000000
v 100.000000 0.000000 1000.000000
v -0.000000 0.000000 0.000000
v -0.000000 0.000000 1000.000000
v 0.000000 100.000000 0.000000
v 0.000000 100.000000 1000.000000
vt 3.375000 3.535534 0.000000
vt -1.125000 3.535534 0.000000
vt 3.375000 -3.535534 0.000000
vt -1.125000 -3.535534 0.000000
vt 8.500000 7.000000 0.000000
vt 8.500000 10.000000 0.000000
vt 7.000000 7.000000 0.000000
vt 3.500000 15.000000 0.000000
vt -0.000000 7.000000 0.000000
vt -1.500000 10.000000 0.000000
vt -1.500000 7.000000 0.000000
vt -0.000000 0.000000 0.000000
vt 7.000000 0.000000 0.000000
vt 3.375000 3.535534 0.000000
vt -1.125000 3.535534 0.000000
vt 3.375000 -3.535534 0.000000
vt -1.125000 -3.535534 0.000000
vt -1.500000 10.000000 0.000000
vt 0.000000 7.000000 0.000000
vt 3.500000 15.000000 0.000000
vt 7.000000 7.000000 0.000000
vt 8.500000 10.000000 0.000000
vt 8.500000 7.000000 0.000000
vt -1.500000 7.000000 0.000000
vt 0.000000 0.000000 0.000000
vt 7.000000 0.000000 0.000000
vt -2.250000 3.500000 0.000000
vt 2.250000 3.500000 0.000000
vt -2.250000 5.000000 0.000000
vt 2.250000 5.000000 0.000000
vt 2.250000 -3.500000 0.000000
vt -2.250000 -3.500000 0.000000
vt 2.250000 -5.000000 0.000000
vt -2.250000 -5.000000 0.000000
vt 4.500000 3.000000 0.000000
vt 0.000000 3.000000 0.000000
vt 4.500000 0.000000 0.000000
vt 0.000000 0.000000 0.000000
vt 4.500000 3.000000 0.000000
vt -0.000000 3.000000 0.000000
vt 4.500000 0.000000 0.000000
vt -0.000000 0.000000 0.000000
vt 0.000000 0.000000 0.000000
vt 4.500000 0.000000 0.000000
vt 0.000000 7.000000 0.000000
vt 4.500000 7.000000 0.000000
vt -0.000000 0.000000 0.000000
vt 4.500000 0.000000 0.000000
vt -0.000000 7.000000 0.000000
vt 4.500000 7.000000 0.000000
vt 0.000000 0.000000 0.000000
vt 10.000000 0.000000 0.000000
vt 0.000000 100.000000 0.000000
vt 10.000000 100.000000 0.000000
vt 0.000000 0.000000 0.000000
vt 10.000000 0.000000 0.000000
vt 0.000000 100.000000 0.000000
vt 10.000000 100.000000 0.000000
vt 0.000000 0.000000 0.000000
vt 10.000000 0.000000 0.000000
vt 0.000000 100.000000 0.000000
vt 10.000000 100.000000 0.000000
vt 0.000000 0.000000 0.000000
vt 10.000000 0.000000 0.000000
vt 0.000000 100.000000 0.000000
vt 10.000000 100.000000 0.000000
vt 3.500000 2.250000 0.000000
vt -5.000000 5.000000 0.000000
vt -3.500000 2.250000 0.000000
vt -5.000000 -5.000000 0.000000
vt -3.500000 -2.250000 0.000000
vt 5.000000 -5.000000 0.000000
vt 3.500000 -2.250000 0.000000
vt 5.000000 5.000000 0.000000
vt 5.000000 5.000000 0.000000
vt -5.000000 5.000000 0.000000
vt 5.000000 -5.000000 0.000000
vt -5.000000 -5.000000 0.000000
vn 0.000000 0.070711 0.070711
vn 0.000000 0.070711 0.070711
vn 0.000000 0.070711 0.070711
vn 0.000000 0.070711 0.070711
vn 0.100000 -0.000000 0.000000
vn 0.100000 -0.000000 0.000000
vn 0.100000 -0.000000 0.000000
vn 0.100000 -0.000000 0.000000
vn 0.100000 -0.000000 0.000000
vn 0.100000 -0.000000 0.000000
vn 0.100000 -0.000000 0.000000
vn 0.100000 -0.000000 0.000000
vn 0.100000 -0.000000 0.000000
vn -0.000000 -0.070711 0.070711
vn -0.000000 -0.070711 0.070711
vn -0.000000 -0.070711 0.070711
vn -0.000000 -0.070711 0.070711
vn -0.100000 0.000000 0.000000
vn -0.100000 0.000000 0.000000
vn -0.100000 0.000000 0.000000
vn -0.100000 0.000000 0.000000
vn -0.100000 0.000000 0.000000
vn -0.100000 0.000000 0.000000
vn -0.100000 0.000000 0.000000
vn -0.100000 0.000000 0.000000
vn -0.100000 0.000000 0.000000
vn 0.000000 0.000000 -0.100000
vn 0.000000 0.000000 -0.100000
vn 0.000000 0.000000 -0.100000
vn 0.000000 0.000000 -0.100000
vn 0.000000 0.000000 -0.100000
vn 0.000000 0.000000 -0.100000
vn 0.000000 0.000000 -0.100000
vn 0.000000 0.000000 -0.100000
vn -0.000000 -0.100000 0.000000
vn -0.000000 -0.100000 0.000000
vn -0.000000 -0.100000 0.000000
vn -0.000000 -0.100000 0.000000
vn 0.000000 0.100000 0.000000
vn 0.000000 0.100000 0.000000
vn 0.000000 0.100000 0.000000
vn 0.000000 0.100000 0.000000
vn -0.000000 -0.100000 0.000000
vn -0.000000 -0.100000 0.000000
vn -0.000000 -0.100000 0.000000
vn -0.000000 -0.100000 0.000000
vn 0.000000 0.100000 0.000000
vn 0.000000 0.100000 0.000000
vn 0.000000 0.100000 0.000000
vn 0.000000 0.100000 0.000000
vn 0.100000 -0.000000 0.000000
vn 0.100000 -0.000000 0.000000
vn 0.100000 -0.000000 0.000000
vn 0.100000 -0.000000 0.000000
vn -0.000000 -0.100000 0.000000
vn -0.000000 -0.100000 0.000000
vn -0.000000 -0.100000 0.000000
vn -0.000000 -0.100000 0.000000
vn -0.100000 0.000000 0.000000
vn -0.100000 0.000000 0.000000
vn -0.100000 0.000000 0.000000
vn -0.100000 0.000000 0.000000
vn 0.000000 0.100000 0.000000
vn 0.000000 0.100000 0.000000
vn 0.000000 0.100000 0.000000
vn 0.000000 0.100000 0.000000
vn 0.000000 0.000000 0.100000
vn 0.000000 0.000000 0.100000
vn 0.000000 0.000000 0.100000
vn 0.000000 0.000000 0.100000
vn 0.000000 0.000000 0.100000
vn 0.000000 0.000000 0.100000
vn 0.000000 0.000000 0.100000
vn 0.000000 0.000000 0.100000
vn 0.000000 0.000000 -0.100000
vn 0.000000 0.000000 -0.100000
vn 0.000000 0.000000 -0.100000
vn 0.000000 0.000000 -0.100000
usemtl Paint_-_Metallic_(Blue)
f 54/157/157 55/158/158 53/159/159
f 53/159/159 55/158/158 56/160/160
f 63/161/161 56/162/162 62/163/163
f 62/163/163 56/162/162 55/164/164
f 62/163/163 55/164/164 59/165/165
f 59/165/165 55/164/164 57/166/166
f 59/165/165 57/166/166 58/167/167
f 60/168/168 61/169/169 59/165/165
f 59/165/165 61/169/169 62/163/163
f 55/170/170 54/171/171 57/172/172
f 57/172/172 54/171/171 64/173/173
f 53/174/174 66/175/175 54/176/176
f 54/176/176 66/175/175 69/177/177
f 54/176/176 69/177/177 64/178/178
f 64/178/178 69/177/177 70/179/179
f 53/174/174 65/180/180 66/175/175
f 67/181/181 68/182/182 66/175/175
f 66/175/175 68/182/182 69/177/177
f 69/183/183 59/184/184 70/185/185
f 70/185/185 59/184/184 58/186/186
f 62/187/187 66/188/188 63/189/189
f 63/189/189 66/188/188 65/190/190
f 57/191/191 64/192/192 58/193/193
f 58/193/193 64/192/192 70/194/194
f 53/195/195 56/196/196 65/197/197
f 65/197/197 56/196/196 63/198/198
f 68/199/199 60/200/200 69/201/201
f 69/201/201 60/200/200 59/202/202
f 61/203/203 67/204/204 62/205/205
f 62/205/205 67/204/204 66/206/206
f 71/207/207 72/208/208 74/209/209
f 74/209/209 72/208/208 73/210/210
f 75/211/211 71/212/212 76/213/213
f 76/213/213 71/212/212 74/214/214
f 77/215/215 75/216/216 78/217/217
f 78/217/217 75/216/216 76/218/218
f 72/219/219 77/220/220 73/221/221
f 73/221/221 77/220/220 78/222/222
f 60/223/223 73/224/224 61/225/225
f 61/225/225 73/224/224 78/226/226
f 61/225/225 78/226/226 67/227/227
f 67/227/227 78/226/226 76/228/228
f 67/227/227 76/228/228 68/229/229
f 68/229/229 76/228/228 60/223/223
f 60/223/223 76/228/228 74/230/230
f 60/223/223 74/230/230 73/224/224
f 77/231/231 72/232/232 75/233/233
f 75/233/233 72/232/232 71/234/234
# 78 vertices
# 234 texture params
# 234 normals
# 144 facets

# 3 groups
